<?xml version="1.0" encoding="UTF-8"?>
<!--Generator: Apple Native CoreSVG 326-->
<!DOCTYPE svg
PUBLIC "-//W3C//DTD SVG 1.1//EN"
       "http://www.w3.org/Graphics/SVG/1.1/DTD/svg11.dtd">
<svg version="1.1" xmlns="http://www.w3.org/2000/svg" xmlns:xlink="http://www.w3.org/1999/xlink" viewBox="0 0 23.5703 21.5332">
 <g>
  <rect height="21.5332" opacity="0" width="23.5703" x="0" y="0"/>
  <path d="M7.61523 7.28711C9.63867 7.28711 11.2656 5.64648 11.2656 3.63672C11.2656 1.62695 9.63867 0 7.61523 0C5.60547 0 3.97852 1.62695 3.97852 3.63672C3.97852 5.64648 5.60547 7.28711 7.61523 7.28711ZM7.61523 5.30469C6.69922 5.30469 5.94727 4.55273 5.94727 3.63672C5.94727 2.7207 6.69922 1.96875 7.61523 1.96875C8.54492 1.96875 9.29688 2.7207 9.29688 3.63672C9.29688 4.55273 8.54492 5.30469 7.61523 5.30469ZM15.5996 7.28711C17.6094 7.28711 19.2363 5.64648 19.2363 3.63672C19.2363 1.62695 17.6094 0 15.5996 0C13.5898 0 11.9492 1.62695 11.9492 3.63672C11.9492 5.64648 13.5898 7.28711 15.5996 7.28711ZM15.5996 5.30469C14.6836 5.30469 13.9316 4.55273 13.9316 3.63672C13.9316 2.7207 14.6836 1.96875 15.5996 1.96875C16.5156 1.96875 17.2676 2.7207 17.2676 3.63672C17.2676 4.55273 16.5156 5.30469 15.5996 5.30469ZM3.65039 14.4102C5.66016 14.4102 7.28711 12.7695 7.28711 10.7598C7.28711 8.75 5.66016 7.10938 3.65039 7.10938C1.62695 7.10938 0 8.75 0 10.7598C0 12.7695 1.62695 14.4102 3.65039 14.4102ZM3.65039 12.4277C2.7207 12.4277 1.96875 11.6758 1.96875 10.7598C1.96875 9.84375 2.7207 9.0918 3.65039 9.0918C4.56641 9.0918 5.31836 9.84375 5.31836 10.7598C5.31836 11.6758 4.56641 12.4277 3.65039 12.4277ZM19.5781 14.4102C21.5879 14.4102 23.2148 12.7695 23.2148 10.7598C23.2148 8.75 21.5879 7.10938 19.5781 7.10938C17.5684 7.10938 15.9277 8.75 15.9277 10.7598C15.9277 12.7695 17.5684 14.4102 19.5781 14.4102ZM19.5781 12.4277C18.6484 12.4277 17.8965 11.6758 17.8965 10.7598C17.8965 9.84375 18.6484 9.0918 19.5781 9.0918C20.4941 9.0918 21.2461 9.84375 21.2461 10.7598C21.2461 11.6758 20.4941 12.4277 19.5781 12.4277ZM7.61523 21.5332C9.63867 21.5332 11.2656 19.9062 11.2656 17.8965C11.2656 15.8867 9.63867 14.2461 7.61523 14.2461C5.60547 14.2461 3.97852 15.8867 3.97852 17.8965C3.97852 19.9062 5.60547 21.5332 7.61523 21.5332ZM7.61523 19.5645C6.69922 19.5645 5.94727 18.8125 5.94727 17.8965C5.94727 16.9805 6.69922 16.2285 7.61523 16.2285C8.54492 16.2285 9.29688 16.9805 9.29688 17.8965C9.29688 18.8125 8.54492 19.5645 7.61523 19.5645ZM15.5996 21.5332C17.6094 21.5332 19.2363 19.9062 19.2363 17.8965C19.2363 15.8867 17.6094 14.2461 15.5996 14.2461C13.5898 14.2461 11.9492 15.8867 11.9492 17.8965C11.9492 19.9062 13.5898 21.5332 15.5996 21.5332ZM15.5996 19.5645C14.6836 19.5645 13.9316 18.8125 13.9316 17.8965C13.9316 16.9805 14.6836 16.2285 15.5996 16.2285C16.5156 16.2285 17.2676 16.9805 17.2676 17.8965C17.2676 18.8125 16.5156 19.5645 15.5996 19.5645Z" fill="black" fill-opacity="0.85"/>
 </g>
</svg>
